<mxfile host="app.diagrams.net" modified="2023-03-25T08:27:26.019Z" agent="Mozilla/5.0 (Windows NT 10.0; Win64; x64) AppleWebKit/537.36 (KHTML, like Gecko) Chrome/111.0.0.0 Safari/537.36" etag="q_m6EbGfcCKLNy-DHg73" version="21.1.1" type="github">
  <diagram id="C5RBs43oDa-KdzZeNtuy" name="Page-1">
    <mxGraphModel dx="1648" dy="756" grid="1" gridSize="10" guides="1" tooltips="1" connect="1" arrows="1" fold="1" page="1" pageScale="1" pageWidth="827" pageHeight="1169" math="0" shadow="0">
      <root>
        <mxCell id="WIyWlLk6GJQsqaUBKTNV-0" />
        <mxCell id="WIyWlLk6GJQsqaUBKTNV-1" parent="WIyWlLk6GJQsqaUBKTNV-0" />
        <mxCell id="pP7PYWnkx4grRRfTVxqD-2" value="" style="edgeStyle=orthogonalEdgeStyle;rounded=0;orthogonalLoop=1;jettySize=auto;html=1;" edge="1" parent="WIyWlLk6GJQsqaUBKTNV-1" source="pP7PYWnkx4grRRfTVxqD-0" target="pP7PYWnkx4grRRfTVxqD-1">
          <mxGeometry relative="1" as="geometry" />
        </mxCell>
        <mxCell id="pP7PYWnkx4grRRfTVxqD-0" value="Начало" style="ellipse;whiteSpace=wrap;html=1;" vertex="1" parent="WIyWlLk6GJQsqaUBKTNV-1">
          <mxGeometry x="300" y="40" width="86" height="30" as="geometry" />
        </mxCell>
        <mxCell id="pP7PYWnkx4grRRfTVxqD-5" value="" style="edgeStyle=orthogonalEdgeStyle;rounded=0;orthogonalLoop=1;jettySize=auto;html=1;" edge="1" parent="WIyWlLk6GJQsqaUBKTNV-1" source="pP7PYWnkx4grRRfTVxqD-1" target="pP7PYWnkx4grRRfTVxqD-3">
          <mxGeometry relative="1" as="geometry" />
        </mxCell>
        <mxCell id="pP7PYWnkx4grRRfTVxqD-1" value="Задать X&lt;sup&gt;0&lt;/sup&gt;, E&lt;sub&gt;1&lt;/sub&gt;&amp;nbsp;и E&lt;sub&gt;2,&lt;/sub&gt;&amp;nbsp;M" style="rounded=1;whiteSpace=wrap;html=1;" vertex="1" parent="WIyWlLk6GJQsqaUBKTNV-1">
          <mxGeometry x="298" y="110" width="90" height="40" as="geometry" />
        </mxCell>
        <mxCell id="pP7PYWnkx4grRRfTVxqD-7" value="" style="edgeStyle=orthogonalEdgeStyle;rounded=0;orthogonalLoop=1;jettySize=auto;html=1;" edge="1" parent="WIyWlLk6GJQsqaUBKTNV-1" source="pP7PYWnkx4grRRfTVxqD-3">
          <mxGeometry relative="1" as="geometry">
            <mxPoint x="343.0344827586207" y="249.9999999999999" as="targetPoint" />
          </mxGeometry>
        </mxCell>
        <mxCell id="pP7PYWnkx4grRRfTVxqD-3" value="Найти gradF в произвольном X" style="rounded=1;whiteSpace=wrap;html=1;" vertex="1" parent="WIyWlLk6GJQsqaUBKTNV-1">
          <mxGeometry x="298" y="180" width="90" height="40" as="geometry" />
        </mxCell>
        <mxCell id="pP7PYWnkx4grRRfTVxqD-10" value="" style="edgeStyle=orthogonalEdgeStyle;rounded=0;orthogonalLoop=1;jettySize=auto;html=1;" edge="1" parent="WIyWlLk6GJQsqaUBKTNV-1" source="pP7PYWnkx4grRRfTVxqD-8" target="pP7PYWnkx4grRRfTVxqD-9">
          <mxGeometry relative="1" as="geometry" />
        </mxCell>
        <mxCell id="pP7PYWnkx4grRRfTVxqD-8" value="k=0" style="rounded=1;whiteSpace=wrap;html=1;" vertex="1" parent="WIyWlLk6GJQsqaUBKTNV-1">
          <mxGeometry x="298" y="250" width="90" height="40" as="geometry" />
        </mxCell>
        <mxCell id="pP7PYWnkx4grRRfTVxqD-13" value="" style="edgeStyle=orthogonalEdgeStyle;rounded=0;orthogonalLoop=1;jettySize=auto;html=1;" edge="1" parent="WIyWlLk6GJQsqaUBKTNV-1" source="pP7PYWnkx4grRRfTVxqD-9" target="pP7PYWnkx4grRRfTVxqD-12">
          <mxGeometry relative="1" as="geometry" />
        </mxCell>
        <mxCell id="pP7PYWnkx4grRRfTVxqD-9" value="Найти gradF для x&lt;sup&gt;k&lt;/sup&gt;" style="rounded=1;whiteSpace=wrap;html=1;" vertex="1" parent="WIyWlLk6GJQsqaUBKTNV-1">
          <mxGeometry x="298" y="320" width="90" height="40" as="geometry" />
        </mxCell>
        <mxCell id="pP7PYWnkx4grRRfTVxqD-17" style="edgeStyle=orthogonalEdgeStyle;rounded=0;orthogonalLoop=1;jettySize=auto;html=1;exitX=1;exitY=0.5;exitDx=0;exitDy=0;entryX=0.5;entryY=0;entryDx=0;entryDy=0;" edge="1" parent="WIyWlLk6GJQsqaUBKTNV-1" source="pP7PYWnkx4grRRfTVxqD-12" target="pP7PYWnkx4grRRfTVxqD-16">
          <mxGeometry relative="1" as="geometry" />
        </mxCell>
        <mxCell id="pP7PYWnkx4grRRfTVxqD-19" value="Нет" style="edgeLabel;html=1;align=center;verticalAlign=middle;resizable=0;points=[];" vertex="1" connectable="0" parent="pP7PYWnkx4grRRfTVxqD-17">
          <mxGeometry x="-0.1838" y="-2" relative="1" as="geometry">
            <mxPoint x="-5" y="-12" as="offset" />
          </mxGeometry>
        </mxCell>
        <mxCell id="pP7PYWnkx4grRRfTVxqD-54" style="edgeStyle=orthogonalEdgeStyle;rounded=0;orthogonalLoop=1;jettySize=auto;html=1;exitX=0;exitY=0.5;exitDx=0;exitDy=0;" edge="1" parent="WIyWlLk6GJQsqaUBKTNV-1" source="pP7PYWnkx4grRRfTVxqD-12" target="pP7PYWnkx4grRRfTVxqD-49">
          <mxGeometry relative="1" as="geometry" />
        </mxCell>
        <mxCell id="pP7PYWnkx4grRRfTVxqD-56" value="Да" style="edgeLabel;html=1;align=center;verticalAlign=middle;resizable=0;points=[];" vertex="1" connectable="0" parent="pP7PYWnkx4grRRfTVxqD-54">
          <mxGeometry x="-0.7353" y="-2" relative="1" as="geometry">
            <mxPoint y="-8" as="offset" />
          </mxGeometry>
        </mxCell>
        <mxCell id="pP7PYWnkx4grRRfTVxqD-12" value="||gradF(x&lt;sup&gt;k&lt;/sup&gt;)||&amp;lt;E&lt;sub&gt;1&lt;/sub&gt;" style="rhombus;whiteSpace=wrap;html=1;" vertex="1" parent="WIyWlLk6GJQsqaUBKTNV-1">
          <mxGeometry x="278" y="390" width="130" height="60" as="geometry" />
        </mxCell>
        <mxCell id="pP7PYWnkx4grRRfTVxqD-21" style="edgeStyle=orthogonalEdgeStyle;rounded=0;orthogonalLoop=1;jettySize=auto;html=1;exitX=1;exitY=0.5;exitDx=0;exitDy=0;entryX=0.5;entryY=0;entryDx=0;entryDy=0;" edge="1" parent="WIyWlLk6GJQsqaUBKTNV-1" source="pP7PYWnkx4grRRfTVxqD-16" target="pP7PYWnkx4grRRfTVxqD-20">
          <mxGeometry relative="1" as="geometry" />
        </mxCell>
        <mxCell id="pP7PYWnkx4grRRfTVxqD-22" value="Нет" style="edgeLabel;html=1;align=center;verticalAlign=middle;resizable=0;points=[];" vertex="1" connectable="0" parent="pP7PYWnkx4grRRfTVxqD-21">
          <mxGeometry x="-0.0804" y="1" relative="1" as="geometry">
            <mxPoint x="-9" y="-9" as="offset" />
          </mxGeometry>
        </mxCell>
        <mxCell id="pP7PYWnkx4grRRfTVxqD-55" style="edgeStyle=orthogonalEdgeStyle;rounded=0;orthogonalLoop=1;jettySize=auto;html=1;exitX=0;exitY=0.5;exitDx=0;exitDy=0;entryX=0.5;entryY=0;entryDx=0;entryDy=0;" edge="1" parent="WIyWlLk6GJQsqaUBKTNV-1" source="pP7PYWnkx4grRRfTVxqD-16" target="pP7PYWnkx4grRRfTVxqD-49">
          <mxGeometry relative="1" as="geometry" />
        </mxCell>
        <mxCell id="pP7PYWnkx4grRRfTVxqD-57" value="Да" style="edgeLabel;html=1;align=center;verticalAlign=middle;resizable=0;points=[];" vertex="1" connectable="0" parent="pP7PYWnkx4grRRfTVxqD-55">
          <mxGeometry x="-0.3661" y="-3" relative="1" as="geometry">
            <mxPoint x="110" y="-7" as="offset" />
          </mxGeometry>
        </mxCell>
        <mxCell id="pP7PYWnkx4grRRfTVxqD-16" value="k&amp;gt;=M" style="rhombus;whiteSpace=wrap;html=1;" vertex="1" parent="WIyWlLk6GJQsqaUBKTNV-1">
          <mxGeometry x="420" y="460" width="130" height="60" as="geometry" />
        </mxCell>
        <mxCell id="pP7PYWnkx4grRRfTVxqD-24" value="" style="edgeStyle=orthogonalEdgeStyle;rounded=0;orthogonalLoop=1;jettySize=auto;html=1;" edge="1" parent="WIyWlLk6GJQsqaUBKTNV-1" source="pP7PYWnkx4grRRfTVxqD-20" target="pP7PYWnkx4grRRfTVxqD-23">
          <mxGeometry relative="1" as="geometry" />
        </mxCell>
        <mxCell id="pP7PYWnkx4grRRfTVxqD-20" value="Задать t&lt;sub&gt;0&lt;/sub&gt;" style="rounded=1;whiteSpace=wrap;html=1;" vertex="1" parent="WIyWlLk6GJQsqaUBKTNV-1">
          <mxGeometry x="560" y="520" width="90" height="40" as="geometry" />
        </mxCell>
        <mxCell id="pP7PYWnkx4grRRfTVxqD-27" value="" style="edgeStyle=orthogonalEdgeStyle;rounded=0;orthogonalLoop=1;jettySize=auto;html=1;" edge="1" parent="WIyWlLk6GJQsqaUBKTNV-1" source="pP7PYWnkx4grRRfTVxqD-23" target="pP7PYWnkx4grRRfTVxqD-26">
          <mxGeometry relative="1" as="geometry" />
        </mxCell>
        <mxCell id="pP7PYWnkx4grRRfTVxqD-23" value="x&lt;sup&gt;k+1&lt;/sup&gt;=x&lt;sup&gt;k&lt;/sup&gt;-t*gradF(x&lt;sup&gt;k&lt;/sup&gt;)" style="rounded=1;whiteSpace=wrap;html=1;" vertex="1" parent="WIyWlLk6GJQsqaUBKTNV-1">
          <mxGeometry x="560" y="590" width="90" height="40" as="geometry" />
        </mxCell>
        <mxCell id="pP7PYWnkx4grRRfTVxqD-32" value="Нет" style="edgeStyle=orthogonalEdgeStyle;rounded=0;orthogonalLoop=1;jettySize=auto;html=1;exitX=1;exitY=0.5;exitDx=0;exitDy=0;" edge="1" parent="WIyWlLk6GJQsqaUBKTNV-1" source="pP7PYWnkx4grRRfTVxqD-26" target="pP7PYWnkx4grRRfTVxqD-31">
          <mxGeometry x="-0.2727" y="10" relative="1" as="geometry">
            <mxPoint as="offset" />
          </mxGeometry>
        </mxCell>
        <mxCell id="pP7PYWnkx4grRRfTVxqD-38" value="Да" style="edgeStyle=orthogonalEdgeStyle;rounded=0;orthogonalLoop=1;jettySize=auto;html=1;exitX=0;exitY=0.5;exitDx=0;exitDy=0;entryX=0.5;entryY=0;entryDx=0;entryDy=0;" edge="1" parent="WIyWlLk6GJQsqaUBKTNV-1" source="pP7PYWnkx4grRRfTVxqD-26" target="pP7PYWnkx4grRRfTVxqD-37">
          <mxGeometry x="-0.5294" y="-10" relative="1" as="geometry">
            <mxPoint as="offset" />
          </mxGeometry>
        </mxCell>
        <mxCell id="pP7PYWnkx4grRRfTVxqD-26" value="f(x&lt;sup&gt;k+1&lt;/sup&gt;)-f(x&lt;sup&gt;k&lt;/sup&gt;)&amp;lt;0" style="rhombus;whiteSpace=wrap;html=1;" vertex="1" parent="WIyWlLk6GJQsqaUBKTNV-1">
          <mxGeometry x="540" y="660" width="130" height="60" as="geometry" />
        </mxCell>
        <mxCell id="pP7PYWnkx4grRRfTVxqD-36" style="edgeStyle=orthogonalEdgeStyle;rounded=0;orthogonalLoop=1;jettySize=auto;html=1;exitX=0.5;exitY=1;exitDx=0;exitDy=0;entryX=0.5;entryY=0;entryDx=0;entryDy=0;" edge="1" parent="WIyWlLk6GJQsqaUBKTNV-1" source="pP7PYWnkx4grRRfTVxqD-31" target="pP7PYWnkx4grRRfTVxqD-23">
          <mxGeometry relative="1" as="geometry">
            <Array as="points">
              <mxPoint x="695" y="780" />
              <mxPoint x="750" y="780" />
              <mxPoint x="750" y="570" />
              <mxPoint x="605" y="570" />
            </Array>
          </mxGeometry>
        </mxCell>
        <mxCell id="pP7PYWnkx4grRRfTVxqD-31" value="t&lt;sub&gt;k&lt;/sub&gt;=t&lt;span style=&quot;font-size: 8.33333px;&quot;&gt;&lt;sub&gt;k&lt;/sub&gt;&lt;/span&gt;/2" style="rounded=1;whiteSpace=wrap;html=1;" vertex="1" parent="WIyWlLk6GJQsqaUBKTNV-1">
          <mxGeometry x="650" y="720" width="90" height="40" as="geometry" />
        </mxCell>
        <mxCell id="pP7PYWnkx4grRRfTVxqD-40" value="Да" style="edgeStyle=orthogonalEdgeStyle;rounded=0;orthogonalLoop=1;jettySize=auto;html=1;exitX=0;exitY=0.5;exitDx=0;exitDy=0;entryX=0.5;entryY=0;entryDx=0;entryDy=0;" edge="1" parent="WIyWlLk6GJQsqaUBKTNV-1" source="pP7PYWnkx4grRRfTVxqD-37" target="pP7PYWnkx4grRRfTVxqD-39">
          <mxGeometry x="-0.2523" y="-10" relative="1" as="geometry">
            <mxPoint as="offset" />
          </mxGeometry>
        </mxCell>
        <mxCell id="pP7PYWnkx4grRRfTVxqD-43" value="Нет" style="edgeStyle=orthogonalEdgeStyle;rounded=0;orthogonalLoop=1;jettySize=auto;html=1;exitX=1;exitY=0.5;exitDx=0;exitDy=0;entryX=0.5;entryY=0;entryDx=0;entryDy=0;" edge="1" parent="WIyWlLk6GJQsqaUBKTNV-1" source="pP7PYWnkx4grRRfTVxqD-37" target="pP7PYWnkx4grRRfTVxqD-42">
          <mxGeometry x="-0.84" y="10" relative="1" as="geometry">
            <mxPoint as="offset" />
          </mxGeometry>
        </mxCell>
        <mxCell id="pP7PYWnkx4grRRfTVxqD-37" value="||x&lt;sup&gt;k+1&lt;/sup&gt;-x&lt;sup&gt;k&lt;/sup&gt;||&amp;lt;E&lt;sub&gt;2&lt;/sub&gt;" style="rhombus;whiteSpace=wrap;html=1;" vertex="1" parent="WIyWlLk6GJQsqaUBKTNV-1">
          <mxGeometry x="420" y="720" width="130" height="60" as="geometry" />
        </mxCell>
        <mxCell id="pP7PYWnkx4grRRfTVxqD-44" style="edgeStyle=orthogonalEdgeStyle;rounded=0;orthogonalLoop=1;jettySize=auto;html=1;exitX=1;exitY=0.5;exitDx=0;exitDy=0;entryX=0.5;entryY=0;entryDx=0;entryDy=0;" edge="1" parent="WIyWlLk6GJQsqaUBKTNV-1" source="pP7PYWnkx4grRRfTVxqD-39" target="pP7PYWnkx4grRRfTVxqD-42">
          <mxGeometry relative="1" as="geometry" />
        </mxCell>
        <mxCell id="pP7PYWnkx4grRRfTVxqD-45" value="Нет" style="edgeLabel;html=1;align=center;verticalAlign=middle;resizable=0;points=[];" vertex="1" connectable="0" parent="pP7PYWnkx4grRRfTVxqD-44">
          <mxGeometry x="0.224" y="3" relative="1" as="geometry">
            <mxPoint x="-19" y="-7" as="offset" />
          </mxGeometry>
        </mxCell>
        <mxCell id="pP7PYWnkx4grRRfTVxqD-48" style="edgeStyle=orthogonalEdgeStyle;rounded=0;orthogonalLoop=1;jettySize=auto;html=1;exitX=0;exitY=0.5;exitDx=0;exitDy=0;entryX=0.5;entryY=0;entryDx=0;entryDy=0;" edge="1" parent="WIyWlLk6GJQsqaUBKTNV-1" source="pP7PYWnkx4grRRfTVxqD-39" target="pP7PYWnkx4grRRfTVxqD-47">
          <mxGeometry relative="1" as="geometry" />
        </mxCell>
        <mxCell id="pP7PYWnkx4grRRfTVxqD-39" value="|f(x&lt;sup&gt;k+1&lt;/sup&gt;)-f(x&lt;sup&gt;k&lt;/sup&gt;)|&amp;lt;E&lt;sub&gt;2&lt;/sub&gt;" style="rhombus;whiteSpace=wrap;html=1;" vertex="1" parent="WIyWlLk6GJQsqaUBKTNV-1">
          <mxGeometry x="278" y="780" width="130" height="60" as="geometry" />
        </mxCell>
        <mxCell id="pP7PYWnkx4grRRfTVxqD-46" style="edgeStyle=orthogonalEdgeStyle;rounded=0;orthogonalLoop=1;jettySize=auto;html=1;exitX=0.5;exitY=1;exitDx=0;exitDy=0;entryX=0.5;entryY=0;entryDx=0;entryDy=0;" edge="1" parent="WIyWlLk6GJQsqaUBKTNV-1" source="pP7PYWnkx4grRRfTVxqD-42" target="pP7PYWnkx4grRRfTVxqD-9">
          <mxGeometry relative="1" as="geometry">
            <Array as="points">
              <mxPoint x="545" y="890" />
              <mxPoint x="760" y="890" />
              <mxPoint x="760" y="300" />
              <mxPoint x="343" y="300" />
            </Array>
          </mxGeometry>
        </mxCell>
        <mxCell id="pP7PYWnkx4grRRfTVxqD-42" value="k=k+1" style="rounded=1;whiteSpace=wrap;html=1;" vertex="1" parent="WIyWlLk6GJQsqaUBKTNV-1">
          <mxGeometry x="500" y="830" width="90" height="40" as="geometry" />
        </mxCell>
        <mxCell id="pP7PYWnkx4grRRfTVxqD-51" style="edgeStyle=orthogonalEdgeStyle;rounded=0;orthogonalLoop=1;jettySize=auto;html=1;exitX=0.5;exitY=1;exitDx=0;exitDy=0;entryX=0.5;entryY=0;entryDx=0;entryDy=0;" edge="1" parent="WIyWlLk6GJQsqaUBKTNV-1" source="pP7PYWnkx4grRRfTVxqD-47" target="pP7PYWnkx4grRRfTVxqD-50">
          <mxGeometry relative="1" as="geometry" />
        </mxCell>
        <mxCell id="pP7PYWnkx4grRRfTVxqD-47" value="x*=x&lt;sup&gt;k+1&lt;/sup&gt;" style="rounded=1;whiteSpace=wrap;html=1;" vertex="1" parent="WIyWlLk6GJQsqaUBKTNV-1">
          <mxGeometry x="160" y="830" width="90" height="40" as="geometry" />
        </mxCell>
        <mxCell id="pP7PYWnkx4grRRfTVxqD-53" style="edgeStyle=orthogonalEdgeStyle;rounded=0;orthogonalLoop=1;jettySize=auto;html=1;exitX=0.5;exitY=1;exitDx=0;exitDy=0;entryX=0.5;entryY=0;entryDx=0;entryDy=0;" edge="1" parent="WIyWlLk6GJQsqaUBKTNV-1" source="pP7PYWnkx4grRRfTVxqD-49" target="pP7PYWnkx4grRRfTVxqD-50">
          <mxGeometry relative="1" as="geometry">
            <Array as="points">
              <mxPoint x="135" y="900" />
              <mxPoint x="343" y="900" />
            </Array>
          </mxGeometry>
        </mxCell>
        <mxCell id="pP7PYWnkx4grRRfTVxqD-49" value="x*=x&lt;sup&gt;k&lt;/sup&gt;" style="rounded=1;whiteSpace=wrap;html=1;" vertex="1" parent="WIyWlLk6GJQsqaUBKTNV-1">
          <mxGeometry x="90" y="760" width="90" height="40" as="geometry" />
        </mxCell>
        <mxCell id="pP7PYWnkx4grRRfTVxqD-50" value="Конец" style="ellipse;whiteSpace=wrap;html=1;" vertex="1" parent="WIyWlLk6GJQsqaUBKTNV-1">
          <mxGeometry x="300" y="920" width="86" height="30" as="geometry" />
        </mxCell>
      </root>
    </mxGraphModel>
  </diagram>
</mxfile>
